<?xml version="1.0" standalone="no"?>
<!DOCTYPE svg PUBLIC "-//W3C//DTD SVG 20010904//EN"
 "http://www.w3.org/TR/2001/REC-SVG-20010904/DTD/svg10.dtd">
<svg version="1.0" xmlns="http://www.w3.org/2000/svg"
 width="260.000000pt" height="260.000000pt" viewBox="0 0 260.000000 260.000000"
 preserveAspectRatio="xMidYMid meet">
<metadata>
Created by potrace 1.11, written by Peter Selinger 2001-2013
</metadata>
<g transform="translate(0.000000,260.000000) scale(0.100000,-0.100000)"
fill="#000000" stroke="none">
<path d="M735 2312 c-67 -32 -121 -87 -157 -161 -35 -71 -33 -196 4 -272 33
-67 90 -121 161 -154 l52 -25 -291 0 c-257 0 -293 -2 -298 -16 -3 -9 -6 -127
-6 -263 0 -179 3 -250 12 -259 7 -7 43 -12 90 -12 l78 0 0 -310 c0 -345 3
-361 62 -398 35 -22 35 -22 857 -22 910 -1 856 -5 897 64 17 28 19 58 22 349
l3 317 75 0 c117 0 109 -19 107 272 -2 198 -5 254 -16 265 -11 11 -71 14 -303
14 l-289 0 51 20 c81 31 180 142 191 214 6 42 5 133 -2 166 -20 91 -103 185
-194 220 -46 17 -72 20 -141 17 -134 -7 -178 -39 -330 -241 -36 -47 -68 -86
-71 -87 -4 0 -50 55 -102 123 -105 134 -117 146 -179 178 -33 17 -64 23 -133
26 -82 3 -95 1 -150 -25z m189 -171 c21 -9 219 -241 211 -249 -1 -1 -68 -3
-149 -3 -165 -1 -199 10 -230 75 -21 45 -20 71 5 115 35 63 97 86 163 62z
m863 -11 c62 -37 80 -121 40 -181 -12 -19 -25 -32 -28 -29 -3 3 -13 -3 -23
-12 -15 -16 -38 -18 -168 -18 -119 0 -148 3 -141 13 5 6 27 34 49 62 21 27 42
54 47 60 78 104 104 125 157 125 19 0 49 -9 67 -20z m-269 -955 c0 -512 0
-524 -20 -542 -17 -15 -44 -19 -186 -23 -182 -6 -215 1 -232 45 -6 16 -10 223
-10 536 l0 509 224 0 224 -1 0 -524z"/>
</g>
</svg>
